<?xml version="1.0" encoding="utf-8"?>
<!-- Generator: Adobe Illustrator 17.1.0, SVG Export Plug-In . SVG Version: 6.00 Build 0)  -->
<!DOCTYPE svg PUBLIC "-//W3C//DTD SVG 1.1//EN" "http://www.w3.org/Graphics/SVG/1.1/DTD/svg11.dtd">
<svg version="1.1" id="Layer_1" xmlns="http://www.w3.org/2000/svg" xmlns:xlink="http://www.w3.org/1999/xlink" x="0px" y="0px"
	 viewBox="0 0 16 16" enable-background="new 0 0 16 16" xml:space="preserve">
<polygon opacity="0.1" points="15,6 14,6 14,4 13,4 13,3 12,3 12,2 10,2 10,1 6,1 6,2 4,2 4,3 3,3 3,4 2,4 2,6 1,6 1,10 2,10 2,12 
	3,12 3,13 4,13 4,14 6,14 6,15 10,15 10,14 12,14 12,13 13,13 13,12 14,12 14,10 15,10 "/>
</svg>
