<svg xmlns="http://www.w3.org/2000/svg" viewBox="0 0 16 16" enable-background="new 0 0 16 16"><path fill-rule="evenodd" clip-rule="evenodd" fill="#221E1B" d="M8 2.1c-3.3 0-6 2.7-6 6 0 2.7 1.7 4.9 4.1 5.7.3.1.4-.1.4-.3v-1c-1.7.4-2-.8-2-.8-.3-.7-.7-.9-.7-.9-.5-.4 0-.4 0-.4.6 0 .9.6.9.6.5.9 1.4.7 1.7.5.1-.4.2-.7.4-.8-1.3-.2-2.7-.7-2.7-3 0-.7.2-1.2.6-1.6 0 0-.2-.6.1-1.5 0 0 .5-.2 1.6.6.6-.1 1.1-.1 1.6-.2.5 0 1 .1 1.5.2 1.1-.8 1.6-.6 1.6-.6.3.8.1 1.4.1 1.6.4.4.6 1 .6 1.6 0 2.3-1.4 2.8-2.7 3 .2.2.4.6.4 1.1v1.6c0 .2.1.3.4.3 2.4-.8 4.1-3 4.1-5.7 0-3.3-2.7-6-6-6z"/></svg>