<svg xmlns="http://www.w3.org/2000/svg" viewBox="0 0 16 16" enable-background="new 0 0 16 16"><path fill="#000" d="M7.8 8.6l-.4-.3c-.1-.1-.1-.2-.1-.3-.1 0-.2-.1-.2-.3s0-.2.1-.3l.2-.2.4-.4c.1-.2.2-.3.3-.4.2-.2.2-.7.3-1.1 0-.2 0-.5-.1-.7-.1-.1-.1-.2-.2-.4s-.2-.2-.3-.3l-.3-.3h.8l.7-.4h-2.5c-.3 0-.7 0-1.1.1-.3.1-.7.2-1 .6-.5.5-.7 1.1-.7 1.6s.2.9.6 1.3c.3.4.8.6 1.5.7h.4l-.1.3-.1.2c0 .2 0 .3.1.5.1.1.2.2.2.3-.2.1-.6.2-1.1.2-.4 0-.8.2-1.2.5-.3.2-.6.5-.8.7s-.2.5-.2.8c0 .5.2.9.7 1.2s1.1.6 2 .6c1.1 0 1.8-.2 2.4-.7.5-.5.8-1 .8-1.6 0-.4-.1-.8-.3-1-.3-.5-.5-.7-.8-.9zm-1.6-1.4c-.2 0-.4-.1-.6-.2-.3-.2-.4-.4-.5-.6-.3-.5-.4-1-.4-1.4 0-.3.1-.7.2-.9.2-.2.5-.4.8-.4.2 0 .5.1.7.2.2.1.4.3.5.6.2.4.4.9.4 1.4v.4c0 .2-.1.3-.2.5-.3.2-.5.4-.9.4zm1.4 4.6c-.3.2-.8.4-1.3.4-.7 0-1.2-.2-1.6-.4-.4-.3-.6-.7-.6-1.1 0-.2.1-.4.2-.6 0-.1.1-.2.3-.4 0-.1.2-.2.3-.2 0-.1.1-.1.2-.1.2-.1.5-.2.8-.2h.8c.5.3.8.6 1 .8.1.3.3.5.3.9s-.2.6-.4.9zm5.4-4.7h-1.3v-1.4h-.8v1.4h-1.3v.8h1.3v1.3h.8v-1.3h1.3v-.8z"/></svg>