<svg xmlns="http://www.w3.org/2000/svg" viewBox="0 0 16 16" enable-background="new 0 0 16 16"><path fill="#fff" d="M6.8 9.6l3.2-1.7-3.2-1.7v3.4z"/><path opacity=".12" fill-rule="evenodd" clip-rule="evenodd" fill="#420000" d="M6.8 6.2l2.8 1.9.4-.2-3.2-1.7z"/><g><linearGradient id="a" gradientUnits="userSpaceOnUse" x1="8" y1="3.78" x2="8" y2="12.22"><stop offset="0" stop-color="#E52D27"/><stop offset="1" stop-color="#BF171D"/></linearGradient><path fill="url(#a)" d="M13.9 5.6s-.1-.8-.5-1.2c-.5-.5-1-.5-1.2-.5-1.7-.1-4.2-.1-4.2-.1s-2.5 0-4.2.1c-.2 0-.7 0-1.2.5-.4.4-.5 1.2-.5 1.2s-.1 1-.1 1.9v.9c0 1 .1 1.9.1 1.9s.1.8.5 1.2c.5.5 1.1.5 1.3.5 1 .1 4.1.1 4.1.1s2.5 0 4.2-.1c.2 0 .7 0 1.2-.5.4-.4.5-1.2.5-1.2s.1-1 .1-1.9v-.9c0-.9-.1-1.9-.1-1.9zm-7.1 4v-3.4l3.2 1.7-3.2 1.7z"/></g></svg>